<?xml version="1.0" encoding="iso-8859-1"?>
<!-- Generator: Adobe Illustrator 19.0.0, SVG Export Plug-In . SVG Version: 6.00 Build 0)  -->
<svg version="1.1" id="Capa_1" xmlns="http://www.w3.org/2000/svg" xmlns:xlink="http://www.w3.org/1999/xlink" x="0px" y="0px"
	 viewBox="0 0 512 512" style="enable-background:new 0 0 512 512;" xml:space="preserve">
<g>
	<g>
		<path d="M507.307,129.835c-2.944-1.984-6.677-2.411-9.941-1.067l-92.032,36.821V160c0-29.419-23.936-53.333-53.333-53.333H53.333
			C23.936,106.667,0,130.581,0,160v192c0,29.419,23.936,53.333,53.333,53.333H352c29.397,0,53.333-23.915,53.333-53.333v-5.589
			l92.032,36.821c3.285,1.344,7.019,0.917,9.941-1.067c2.923-1.984,4.693-5.291,4.693-8.832V138.667
			C512,135.125,510.229,131.819,507.307,129.835z"/>
	</g>
</g>
<g>
</g>
<g>
</g>
<g>
</g>
<g>
</g>
<g>
</g>
<g>
</g>
<g>
</g>
<g>
</g>
<g>
</g>
<g>
</g>
<g>
</g>
<g>
</g>
<g>
</g>
<g>
</g>
<g>
</g>
</svg>
